# xmcd
#
# Track frame offsets: 
#        150
#        11390
#        26235
#        31360
#        38762
#        44905
#        51327
#        66182
#        71082
#        92282
#        99855
#        133717
#        170452
#        180362
#        184745
#        189132
#        195577
#        199225
#        202830
#        207882
#        213312
#        217187
#        221720
#        243825
#        257695
#        270887
#        312100
#
# Disc length: 4352 seconds
#
# Revision: 1
# Processed by: cddbd v1.5.2PL0 Copyright (c) Steve Scherf et al.
# Submitted via: ExactAudioCopy v0.99pb5
#
DISCID=8210fe1b
DTITLE=Rivka Golani, I Musici de Montreal, Yuli Turovsky - Britten - V
DTITLE=ariations on a Theme of Frank Bridge, Young Apollo, Lachrymae, 
DTITLE=Simple Symphony
DYEAR=1990
DGENRE=Classical
TTITLE0=Variations of a theme of Frank Bridge Op.10 -I- Introduction a
TTITLE0=nd Theme
TTITLE1=Variations of a theme of Frank Bridge Op.10 -II- Adagio
TTITLE2=Variations of a theme of Frank Bridge Op.10 -III- March
TTITLE3=Variations of a theme of Frank Bridge Op.10 -IV- Romance
TTITLE4=Variations of a theme of Frank Bridge Op.10 -V- Aria Italiana
TTITLE5=Variations of a theme of Frank Bridge Op.10 -VI- Bourrée Class
TTITLE5=ique
TTITLE6=Variations of a theme of Frank Bridge Op.10 -VII- Wiener Walze
TTITLE6=r
TTITLE7=Variations of a theme of Frank Bridge Op.10 -VIII- Moto Perpet
TTITLE7=uo
TTITLE8=Variations of a theme of Frank Bridge Op.10 -IX- Funeral March
TTITLE9=Variations of a theme of Frank Bridge Op.10 -X- Chant
TTITLE10=Variations of a theme of Frank Bridge Op.10 -XI- Fugue and Fi
TTITLE10=nale
TTITLE11=Young Apollo for piano, string quartet and string orchestra O
TTITLE11=p.16
TTITLE12=Lachrymae: Reflections on a song of John Dowland Op.48a -I- L
TTITLE12=ento
TTITLE13=Lachrymae: Reflections on a song of John Dowland Op.48a -II- 
TTITLE13=Allegretto, Andante molto
TTITLE14=Lachrymae: Reflections on a song of John Dowland Op.48a -III-
TTITLE14=Animato
TTITLE15=Lachrymae: Reflections on a song of John Dowland Op.48a -IV- 
TTITLE15=Tranquillo
TTITLE16=Lachrymae: Reflections on a song of John Dowland Op.48a -V- A
TTITLE16=llegro con moto
TTITLE17=Lachrymae: Reflections on a song of John Dowland Op.48a -VI- 
TTITLE17=Largamente
TTITLE18=Lachrymae: Reflections on a song of John Dowland Op.48a -VII-
TTITLE18=Appassionato
TTITLE19=Lachrymae: Reflections on a song of John Dowland Op.48a -VIII
TTITLE19=Alla Valse moderato
TTITLE20=Lachrymae: Reflections on a song of John Dowland Op.48a -IX- 
TTITLE20=Allegro marcia
TTITLE21=Lachrymae: Reflections on a song of John Dowland Op.48a -X- L
TTITLE21=ento
TTITLE22=Lachrymae: Reflections on a song of John Dowland Op.48a -XI- 
TTITLE22=L'istesso tempo
TTITLE23=Simple Symphony Op.4 -I- Boisterous Bourrée
TTITLE24=Simple Symphony Op.4 -II- Playful Pizzicato
TTITLE25=Simple Symphony Op.4 -III- Sentimental Saraband
TTITLE26=Simple Symphony Op.4 -IV- Frolicsome Finale
EXTD=YEAR: 1989
EXTT0=
EXTT1=
EXTT2=
EXTT3=
EXTT4=
EXTT5=
EXTT6=
EXTT7=
EXTT8=
EXTT9=
EXTT10=
EXTT11=
EXTT12=
EXTT13=
EXTT14=
EXTT15=
EXTT16=
EXTT17=
EXTT18=
EXTT19=
EXTT20=
EXTT21=
EXTT22=
EXTT23=
EXTT24=
EXTT25=
EXTT26=
PLAYORDER=
